<?xml version="1.0" standalone="no"?>
<!DOCTYPE svg PUBLIC "-//W3C//DTD SVG 20010904//EN"
 "http://www.w3.org/TR/2001/REC-SVG-20010904/DTD/svg10.dtd">
<svg version="1.0" xmlns="http://www.w3.org/2000/svg"
 width="805.000000pt" height="805.000000pt" viewBox="0 0 805.000000 805.000000"
 preserveAspectRatio="xMidYMid meet">
<metadata>
Created by potrace 1.11, written by Peter Selinger 2001-2013
</metadata>
<g transform="translate(0.000000,805.000000) scale(0.100000,-0.100000)"
fill="#000000" stroke="none">
<path d="M5880 8029 c-179 -46 -253 -107 -336 -277 -31 -64 -60 -126 -65 -137
-55 -123 -95 -150 -205 -136 -5 0 -19 9 -30 19 -39 35 -71 42 -181 37 -113 -4
-159 -10 -207 -25 -50 -17 -69 -11 -146 44 -105 75 -151 98 -265 135 -55 18
-126 47 -157 64 l-57 31 -85 -28 c-50 -17 -83 -33 -79 -39 3 -6 2 -7 -4 -4
-15 10 -95 -32 -87 -45 4 -7 3 -8 -4 -4 -7 4 -42 -8 -79 -27 -38 -19 -108 -54
-158 -77 -174 -82 -315 -189 -461 -351 -76 -84 -174 -118 -389 -134 -127 -10
-205 -23 -221 -35 -28 -24 -85 -151 -81 -180 3 -15 0 -48 -6 -73 -9 -43 -8
-49 18 -88 28 -40 28 -42 12 -67 -34 -54 -39 -71 -33 -97 6 -25 40 -46 62 -38
6 2 17 15 25 29 20 39 62 55 152 59 118 5 136 14 266 137 45 43 103 90 129
105 26 15 77 46 113 69 37 24 91 54 120 68 122 55 363 129 490 150 115 19 204
55 263 107 l35 30 42 -63 c23 -35 59 -81 79 -103 l38 -40 -172 -345 c-164
-331 -220 -434 -275 -510 -93 -128 -176 -224 -298 -344 -174 -172 -237 -227
-415 -353 -116 -83 -210 -169 -234 -214 -17 -34 -30 -96 -39 -184 -4 -38 -8
-72 -10 -75 -1 -3 -6 -27 -9 -53 -4 -26 -11 -71 -17 -100 -11 -63 -22 -161
-21 -202 1 -16 3 -91 6 -165 8 -198 -6 -243 -126 -413 -144 -203 -151 -232
-173 -682 -14 -299 -19 -332 -54 -375 -30 -39 -169 -149 -188 -150 -6 0 -13
-3 -15 -7 -1 -5 -22 -21 -46 -36 -86 -56 -206 -168 -260 -242 -20 -27 -39 -52
-42 -55 -7 -6 -110 -169 -110 -175 0 -11 -223 -359 -240 -375 -3 -3 -28 -34
-55 -70 -66 -88 -193 -248 -227 -285 -15 -16 -27 -33 -27 -37 -1 -4 -22 -27
-47 -50 l-47 -43 -161 0 c-135 0 -166 -3 -188 -17 -32 -21 -34 -38 -36 -263
-1 -93 -5 -183 -8 -200 -4 -16 -26 -73 -49 -125 -77 -173 -105 -332 -77 -440
18 -72 130 -302 176 -362 71 -92 166 -123 183 -60 10 34 10 175 1 222 -22 113
-24 102 35 212 30 57 69 127 86 156 17 30 68 129 112 220 45 92 106 205 136
252 66 101 225 262 658 666 110 102 152 140 251 229 6 6 54 49 106 98 52 48
104 95 115 105 20 17 166 148 187 167 28 25 115 93 151 118 66 44 144 117 161
150 9 17 20 62 25 100 6 51 18 84 45 130 39 65 213 318 225 327 3 3 32 44 63
92 99 152 207 380 305 643 51 138 103 268 114 289 35 62 68 81 141 80 53 0 79
-8 172 -51 144 -67 158 -72 259 -88 17 -3 66 -12 110 -20 44 -7 96 -16 116
-19 20 -3 42 -8 50 -10 8 -3 32 -8 54 -11 106 -15 256 -58 350 -99 l60 -27
-55 -30 c-62 -34 -106 -72 -126 -111 -7 -14 -25 -70 -39 -124 -46 -176 -81
-228 -265 -394 -46 -41 -91 -82 -99 -91 -69 -68 -338 -263 -471 -341 -107 -63
-152 -105 -152 -141 0 -39 60 -221 82 -250 16 -20 38 -30 98 -43 183 -40 288
-120 442 -338 140 -198 186 -228 350 -227 114 1 192 9 226 21 22 9 24 15 21
47 -14 113 -67 185 -195 262 -38 23 -85 57 -103 76 -52 52 -133 195 -144 255
-1 3 -4 14 -8 25 -3 11 -8 31 -11 45 -2 14 -9 47 -16 74 -13 60 -6 97 23 124
24 22 202 136 402 257 249 150 407 262 530 376 89 83 213 180 269 211 109 62
158 107 199 188 49 98 56 158 28 247 -21 72 -76 169 -126 225 -16 18 -77 76
-135 128 -58 51 -152 137 -210 191 -243 225 -327 283 -530 371 -105 45 -482
171 -565 189 -33 7 -63 15 -67 19 -5 3 19 50 52 105 53 85 89 126 276 312
l215 213 52 -2 c44 -2 63 4 122 38 92 52 198 96 315 129 248 71 294 98 669
393 151 119 209 159 225 156 86 -18 133 -16 186 7 47 20 191 118 228 156 45
45 95 36 192 -32 84 -59 131 -60 116 -1 -6 25 -73 75 -176 130 -80 43 -87 64
-33 100 41 26 163 61 253 71 66 7 110 23 110 39 0 7 -6 20 -13 31 -23 30 -202
26 -377 -10 -23 -5 -23 -3 10 25 42 37 174 125 251 169 72 40 84 53 69 80 -6
12 -18 21 -28 22 -72 4 -131 -19 -270 -104 -48 -30 -97 -59 -109 -66 l-22 -11
14 45 c15 52 22 62 84 123 38 37 42 45 30 57 -8 8 -28 17 -44 20 -26 5 -38 -1
-86 -47 -31 -29 -76 -84 -101 -123 -25 -38 -64 -90 -87 -115 l-42 -45 6 45
c19 136 19 135 -6 151 -35 23 -67 29 -78 15 -6 -7 -13 -39 -17 -72 -8 -82 -21
-118 -51 -148 -21 -21 -27 -39 -34 -107 -4 -44 -14 -88 -21 -97 -46 -59 -119
-100 -298 -168 -63 -25 -124 -49 -135 -54 -28 -14 -165 -60 -165 -55 0 2 -15
-1 -32 -6 -18 -5 -70 -12 -116 -15 l-83 -6 5 88 c6 76 15 133 31 180 2 7 28
-12 59 -42 30 -29 67 -56 82 -60 38 -10 75 13 99 61 11 22 21 42 22 44 1 2 17
-5 35 -16 39 -23 68 -20 68 8 0 14 7 19 29 19 33 0 54 17 76 61 9 16 18 29 21
29 3 0 25 -11 48 -25 63 -37 74 -24 81 95 4 52 11 105 18 119 7 14 33 36 59
50 25 14 59 37 73 51 52 48 79 143 61 216 -6 29 -5 32 21 38 48 12 73 34 73
64 0 37 -192 340 -259 409 -77 79 -117 96 -231 99 -68 2 -117 -3 -170 -17z"/>
</g>
</svg>
